<?xml version="1.0" encoding="utf-8"?>
<!-- Generator: Adobe Illustrator 16.0.0, SVG Export Plug-In . SVG Version: 6.00 Build 0)  -->
<!DOCTYPE svg PUBLIC "-//W3C//DTD SVG 1.1//EN" "http://www.w3.org/Graphics/SVG/1.1/DTD/svg11.dtd">
<svg version="1.1" id="Warstwa_1" xmlns="http://www.w3.org/2000/svg" xmlns:xlink="http://www.w3.org/1999/xlink" x="0px" y="0px"
	 width="223.753px" height="35.23px" viewBox="-42.044 -0.001 223.753 35.23" enable-background="new -42.044 -0.001 223.753 35.23"
	 xml:space="preserve">
<g>
	<path fill="#FFFFFF" d="M17.32,33.899c-0.142,0-0.377-0.095-0.424-0.188L8.613,20.485H6.307v13.038
		c0,0.188-0.188,0.376-0.472,0.376H0.471C0.188,33.899,0,33.711,0,33.523V14.743c0-0.188,0.188-0.376,0.472-0.376h4.377
		C3.247,11.872,1.601,9.237,0,6.742V1.33c0-0.188,0.188-0.377,0.472-0.377h10.729c0,0,11.201,0,11.201,9.741
		c0,5.789-3.719,8.097-6.919,9.083l8.473,13.558c0.188,0.282,0,0.563-0.329,0.563L17.32,33.899L17.32,33.899z M11.813,14.32
		c1.788-0.048,4.283-0.801,4.283-3.624c0-3.624-3.813-3.624-4.896-3.624H7.248L11.813,14.32z"/>
	<path fill="#FFFFFF" d="M35.063,6.931v7.438h12.942c0.235,0,0.425,0.188,0.425,0.376v5.225c0,0.188-0.188,0.377-0.425,0.377H35.063
		v7.438h15.626c0.282,0,0.472,0.188,0.472,0.377v5.364c0,0.188-0.188,0.376-0.472,0.376H29.227c-0.282,0-0.472-0.188-0.472-0.376
		V1.33c0-0.188,0.188-0.377,0.472-0.377h21.038c0.281,0,0.471,0.188,0.471,0.377v5.225c0,0.188-0.188,0.376-0.471,0.376H35.063z"/>
	<path fill="#FFFFFF" d="M71.819,30.181H61.136l-1.271,3.483c-0.048,0.141-0.235,0.233-0.425,0.233h-5.789
		c-0.377,0-0.563-0.233-0.424-0.518L66.078,0.246c0.142-0.329,0.706-0.329,0.847,0l12.85,33.135
		c0.143,0.282-0.047,0.518-0.376,0.518h-5.836c-0.143,0-0.33-0.095-0.377-0.233L71.819,30.181z M63.159,24.628h6.637l-3.295-9.885
		L63.159,24.628z"/>
	<path fill="#FFFFFF" d="M100.999,27.78c0.281,0,0.472,0.189,0.472,0.379v5.364c0,0.188-0.188,0.376-0.472,0.376H83.679
		c-0.282,0-0.472-0.188-0.472-0.376V1.33c0-0.188,0.188-0.377,0.472-0.377h5.412c0.235,0,0.424,0.188,0.424,0.377V27.78H100.999z"/>
	<path fill="#FFFFFF" d="M114.74,6.602v21.65h3.296c0.282,0,0.471,0.188,0.471,0.376v4.896c0,0.188-0.188,0.376-0.471,0.376h-12.943
		c-0.281,0-0.47-0.188-0.47-0.376v-4.896c0-0.188,0.188-0.376,0.47-0.376h3.343V6.602h-3.153c-0.281,0-0.471-0.188-0.471-0.377V1.33
		c0-0.188,0.188-0.377,0.471-0.377h12.566c0.281,0,0.472,0.188,0.472,0.377v4.895c0,0.188-0.188,0.377-0.472,0.377H114.74z"/>
	<path fill="#FFFFFF" d="M151.074,33.523c0,0.188-0.188,0.376-0.471,0.376h-5.413c-0.094,0-0.329-0.047-0.377-0.141L129.66,12.062
		v21.462c0,0.188-0.188,0.376-0.472,0.376h-5.413c-0.234,0-0.424-0.188-0.424-0.376V1.33c0-0.188,0.188-0.377,0.424-0.377h5.459
		c0.096,0,0.33,0.047,0.377,0.142l15.202,21.697V1.33c0-0.188,0.188-0.377,0.472-0.377h5.318c0.281,0,0.471,0.188,0.471,0.377
		V33.523L151.074,33.523z"/>
	<path fill="#FFFFFF" d="M181.288,0.953h-8.884v5.836h0.788l-0.788,2.186v0.072h-0.024l-3.939,10.921l-4.8-13.179h1.428V0.953
		h-9.522c-0.329,0-0.563,0.233-0.424,0.518l12.896,33.512c0.143,0.329,0.705,0.329,0.847,0l12.803-33.512
		C181.807,1.188,181.571,0.953,181.288,0.953z"/>
</g>
<g>
	<g>
		<polygon fill="#1275BC" points="-7.723,16.949 -18.223,33.488 -20.77,29.476 -13.267,17.658 -12.818,16.949 -13.267,16.24 
			-20.77,4.424 -20.77,4.423 -18.223,0.411 		"/>
		<polygon fill="#008AD1" points="-25.015,8.227 -27.431,4.423 -24.884,0.411 -22.469,4.215 		"/>
		<polygon fill="#008AD1" points="-14.385,16.949 -24.884,33.488 -27.431,29.476 -19.929,17.658 -19.479,16.949 -19.929,16.24 
			-24.099,9.67 -21.553,5.659 		"/>
		<polygon fill="#2FC4F4" points="-21.046,16.949 -25.8,24.437 -31.546,33.488 -35.5,27.257 -36.641,25.462 -39.553,20.873 
			-42.044,16.949 -37.29,9.461 -31.546,0.411 -25.8,9.461 -25.799,9.462 -30.55,16.952 -31.54,18.513 -35.58,12.151 -35.581,12.153 
			-36.493,13.59 -33.449,18.386 -31.54,21.395 -29.635,18.395 -24.882,10.906 -23.537,13.025 		"/>
		<polygon opacity="0.4" fill="#008AD1" points="-29.635,18.395 -25.8,24.437 -31.546,33.488 -35.5,27.257 -37.29,24.437 
			-33.449,18.386 -31.54,21.395 		"/>
		<polygon opacity="0.4" fill="#008AD1" points="-35.581,12.153 -37.29,9.461 -31.546,0.411 -25.8,9.461 -30.552,16.949 
			-30.55,16.952 -31.54,18.513 -35.58,12.151 		"/>
	</g>
	<g>
		<polygon fill="#FFFFFF" points="-18.223,0.411 -20.77,4.424 -20.77,4.423 		"/>
	</g>
</g>
</svg>
